<?xml version="1.0" encoding="utf-8"?>
<!-- github.com/rashidshamloo -->
<svg version="1.1" id="visual" xmlns="http://www.w3.org/2000/svg" xmlns:xlink="http://www.w3.org/1999/xlink" x="0px" y="0px"
	 viewBox="0 0 4000 3000" style="enable-background:new 0 0 4000 3000;" xml:space="preserve">
<style type="text/css">
	.st0{fill:#7B7B7BBB;}
	.st1{fill:#5B5B5B99;}
	.st2{fill:#3D3D3D66;}
	.st3{fill:#21212133;}
</style>
<path class="st0" d="M0,2978.4l29-0.5c29-0.5,87-1.5,145-2.8c58-1.4,116-3,174-4.5s116-2.9,174,1.5c58,4.3,116,14.3,174,19.1
	c58,4.9,116,4.5,173.8,1.2c57.9-3.3,115.5-9.7,173.4-12.8c57.8-3.2,115.8-3.2,173.8-1.5c58,1.6,116,5,174,8.1
	c58,3.2,116,6.2,174,7.5c58,1.4,116,1,174,1.4c58,0.3,116,1.3,174-2.2s116-11.5,174-16s116-5.5,174-3.2c58,2.4,116,8,174,12.4
	c58,4.3,116,7.3,174,7c58-0.4,116-4,174-7.9c58-3.8,116-7.8,173.8-10.1c57.9-2.4,115.5-3,173.4,0.3c57.8,3.3,115.8,10.7,173.8,12.3
	c58,1.7,116-2.3,174-6.5c58-4.1,116-8.5,174-8.8c58-0.3,116,3.3,174,3.7c58,0.3,116-2.7,145-4.2l29-1.5v-21h-29c-29,0-87,0-145,0
	s-116,0-174,0s-116,0-174,0s-116,0-174,0s-116,0-173.8,0c-57.9,0-115.5,0-173.4,0c-57.8,0-115.8,0-173.8,0s-116,0-174,0
	s-116,0-174,0s-116,0-174,0s-116,0-174,0s-116,0-174,0s-116,0-174,0s-116,0-174,0s-116,0-174,0s-116,0-174,0s-116,0-173.8,0
	c-57.9,0-115.5,0-173.4,0c-57.8,0-115.8,0-173.8,0s-116,0-174,0s-116,0-174,0s-116,0-174,0s-116,0-145,0H0V2978.4z"/>
<path class="st1" d="M0,2966.4l29,3.2c29,3.1,87,9.5,145,12.3c58,2.8,116,2.2,174,1.2s116-2.4,174-1.7c58,0.7,116,3.3,174,3.5
	c58,0.2,116-2.2,173.8-6.3c57.9-4.2,115.5-10.2,173.4-9.9c57.8,0.4,115.8,7,173.8,7.7c58,0.7,116-4.7,174-4.2s116,6.9,174,6.7
	c58-0.2,116-6.8,174-10.2c58-3.3,116-3.3,174-2c58,1.4,116,4,174,3.9c58-0.2,116-3.2,174-4c58-0.9,116,0.5,174,2.5s116,4.6,174,8
	c58,3.3,116,7.3,174,7.5c58,0.1,116-3.5,173.8-5.5c57.9-2,115.5-2.4,173.4-4.4c57.8-2,115.8-5.6,173.8-8.1s116-3.9,174-0.4
	s116,11.9,174,12.9s116-5.4,174-8.9s116-4.1,145-4.5l29-0.3v-16h-29c-29,0-87,0-145,0s-116,0-174,0s-116,0-174,0s-116,0-174,0
	s-116,0-173.8,0c-57.9,0-115.5,0-173.4,0c-57.8,0-115.8,0-173.8,0s-116,0-174,0s-116,0-174,0s-116,0-174,0s-116,0-174,0
	s-116,0-174,0s-116,0-174,0s-116,0-174,0s-116,0-174,0s-116,0-174,0s-116,0-173.8,0c-57.9,0-115.5,0-173.4,0
	c-57.8,0-115.8,0-173.8,0s-116,0-174,0s-116,0-174,0s-116,0-174,0s-116,0-145,0H0V2966.4z"/>
<path class="st2" d="M0,2976.4l29,0.8c29,0.9,87,2.5,145,0.2c58-2.3,116-8.7,174-11.5c58-2.8,116-2.2,174-0.5
	c58,1.7,116,4.3,174,4.3s116-2.6,173.8-5.3c57.9-2.7,115.5-5.3,173.4-3.2c57.8,2.2,115.8,9.2,173.8,13.4c58,4.1,116,5.5,174,5.6
	c58,0.2,116-0.8,174-4.6c58-3.9,116-10.5,174-14s116-3.9,174-3.2c58,0.7,116,2.3,174,4.5c58,2.2,116,4.8,174,4.7
	c58-0.2,116-3.2,174-3.2s116,3,174,3.8c58,0.9,116-0.5,174,0.9c58,1.3,116,5.3,173.8,4.8c57.9-0.5,115.5-5.5,173.4-8
	c57.8-2.5,115.8-2.5,173.8-1.2c58,1.4,116,4,174,5.7c58,1.7,116,2.3,174,2.5c58,0.2,116-0.2,174,0.7c58,0.8,116,2.8,145,3.8l29,1
	v-29h-29c-29,0-87,0-145,0s-116,0-174,0s-116,0-174,0s-116,0-174,0s-116,0-173.8,0c-57.9,0-115.5,0-173.4,0c-57.8,0-115.8,0-173.8,0
	s-116,0-174,0s-116,0-174,0s-116,0-174,0s-116,0-174,0s-116,0-174,0s-116,0-174,0s-116,0-174,0s-116,0-174,0s-116,0-174,0
	s-116,0-173.8,0c-57.9,0-115.5,0-173.4,0c-57.8,0-115.8,0-173.8,0s-116,0-174,0s-116,0-174,0s-116,0-174,0s-116,0-145,0H0V2976.4z"
	/>
<path class="st3" d="M0,2972.4l29-1c29-1,87-3,145-6s116-7,174-6.7c58,0.4,116,5,174,6.9c58,1.8,116,0.8,174,0.3s116-0.5,173.8-0.5
	c57.9,0,115.5,0,173.4,1.3c57.8,1.4,115.8,4,173.8,4.5s116-1.1,174-1.6s116,0.1,174-2c58-2.2,116-7.2,174-8.2s116,2,174,4.2
	c58,2.1,116,3.5,174,1.5s116-7.4,174-9.4s116-0.6,174,1.2c58,1.8,116,4.2,174,5.5c58,1.3,116,1.7,174,0.2s116-4.9,173.8-5.4
	c57.9-0.5,115.5,1.9,173.4,4.7c57.8,2.8,115.8,6.2,173.8,6.5c58,0.3,116-2.3,174-3.2c58-0.8,116,0.2,174,0.9c58,0.6,116,1,174-0.7
	c58-1.7,116-5.3,145-7.2l29-1.8v-7h-29c-29,0-87,0-145,0s-116,0-174,0s-116,0-174,0s-116,0-174,0s-116,0-173.8,0
	c-57.9,0-115.5,0-173.4,0c-57.8,0-115.8,0-173.8,0s-116,0-174,0s-116,0-174,0s-116,0-174,0s-116,0-174,0s-116,0-174,0s-116,0-174,0
	s-116,0-174,0s-116,0-174,0s-116,0-174,0s-116,0-173.8,0c-57.9,0-115.5,0-173.4,0c-57.8,0-115.8,0-173.8,0s-116,0-174,0
	s-116,0-174,0s-116,0-174,0s-116,0-145,0H0V2972.4z"/>
<path d="M0,2950.4l29,2.3c29,2.4,87,7,145,8.2c58,1.2,116-1.2,174-3.7s116-5.1,174-5.1s116,2.6,174,4c58,1.3,116,1.3,173.8,0.3
	c57.9-1,115.5-3,173.4-2.3c57.8,0.6,115.8,4,173.8,4.1c58,0.2,116-2.8,174-3.1c58-0.4,116,2,174,3s116,0.6,174-0.7
	c58-1.3,116-3.7,174-4.7s116-0.6,174-0.5c58,0.2,116,0.2,174,0.9c58,0.6,116,2,174,3.8c58,1.8,116,4.2,174,3.2s116-5.4,174-6.2
	c58-0.8,116,1.8,173.8,3.8c57.9,2,115.5,3.4,173.4,3.2c57.8-0.2,115.8-1.8,173.8-2.3s116,0.1,174-0.9s116-3.6,174-3.8
	c58-0.2,116,2.2,174,2.7s116-0.9,145-1.5l29-0.7v-5h-29c-29,0-87,0-145,0s-116,0-174,0s-116,0-174,0s-116,0-174,0s-116,0-173.8,0
	c-57.9,0-115.5,0-173.4,0c-57.8,0-115.8,0-173.8,0s-116,0-174,0s-116,0-174,0s-116,0-174,0s-116,0-174,0s-116,0-174,0s-116,0-174,0
	s-116,0-174,0s-116,0-174,0s-116,0-174,0s-116,0-173.8,0c-57.9,0-115.5,0-173.4,0c-57.8,0-115.8,0-173.8,0s-116,0-174,0
	s-116,0-174,0s-116,0-174,0s-116,0-145,0H0V2950.4z"/>
<rect width="4000" height="2950"/>
</svg>
