<!-- github.com/rashidshamloo -->
<svg id="visual" viewBox="0 0 960 540" width="960" height="540" xmlns="http://www.w3.org/2000/svg" xmlns:xlink="http://www.w3.org/1999/xlink" version="1.1" preserveAspectRatio="none" ><rect x="0" y="0" width="960" height="540" fill="transparent"></rect><defs><linearGradient id="grad1_0" x1="43.8%" y1="100%" x2="100%" y2="0%"><stop offset="14.444444444444446%" stop-color="#000000" stop-opacity="1"></stop><stop offset="85.55555555555554%" stop-color="#000000" stop-opacity="1"></stop></linearGradient></defs><defs><linearGradient id="grad1_1" x1="43.8%" y1="100%" x2="100%" y2="0%"><stop offset="14.444444444444446%" stop-color="#000000" stop-opacity="1"></stop><stop offset="85.55555555555554%" stop-color="#ffffff" stop-opacity="1"></stop></linearGradient></defs><defs><linearGradient id="grad2_0" x1="0%" y1="100%" x2="56.3%" y2="0%"><stop offset="14.444444444444446%" stop-color="#000000" stop-opacity="1"></stop><stop offset="85.55555555555554%" stop-color="#000000" stop-opacity="1"></stop></linearGradient></defs><defs><linearGradient id="grad2_1" x1="0%" y1="100%" x2="56.3%" y2="0%"><stop offset="14.444444444444446%" stop-color="#ffffff" stop-opacity="1"></stop><stop offset="85.55555555555554%" stop-color="#000000" stop-opacity="1"></stop></linearGradient></defs><g transform="translate(960, 540)"><path d="M-243 0C-219.4 -7.6 -195.9 -15.1 -186.6 -22.7C-177.4 -30.2 -182.5 -37.7 -179.6 -44.3C-176.8 -50.8 -166 -56.4 -153.3 -58.2C-140.6 -59.9 -126 -57.8 -131.9 -69.2C-137.9 -80.7 -164.4 -105.7 -165.4 -114.2C-166.4 -122.6 -141.9 -114.5 -134 -118.7C-126.1 -122.9 -134.8 -139.5 -139.3 -157.2C-143.7 -174.9 -143.8 -193.7 -131.8 -190.9C-119.8 -188.1 -95.5 -163.7 -85.5 -162.9C-75.5 -162.1 -79.6 -184.8 -78 -205.7C-76.4 -226.6 -69.1 -245.5 -58.2 -235.9C-47.2 -226.4 -32.7 -188.2 -22.4 -184.6C-12.1 -181.1 -6.1 -212 0 -243L0 0Z" fill="#00000022"></path><path d="M-121.5 0C-109.7 -3.8 -97.9 -7.6 -93.3 -11.3C-88.7 -15.1 -91.2 -18.9 -89.8 -22.1C-88.4 -25.4 -83 -28.2 -76.7 -29.1C-70.3 -29.9 -63 -28.9 -66 -34.6C-68.9 -40.4 -82.2 -52.9 -82.7 -57.1C-83.2 -61.3 -70.9 -57.2 -67 -59.3C-63 -61.5 -67.4 -69.7 -69.6 -78.6C-71.8 -87.4 -71.9 -96.9 -65.9 -95.5C-59.9 -94.1 -47.8 -81.9 -42.8 -81.5C-37.7 -81 -39.8 -92.4 -39 -102.9C-38.2 -113.3 -34.5 -122.8 -29.1 -118C-23.6 -113.2 -16.4 -94.1 -11.2 -92.3C-6.1 -90.5 -3 -106 0 -121.5L0 0Z" fill="#00000022"></path></g><g transform="translate(0, 0)"><path d="M243 0C234.8 8.5 226.5 17.1 227.3 27.6C228.1 38.1 237.9 50.7 228.2 56.2C218.4 61.8 189.1 60.3 189.8 72C190.5 83.6 221.1 108.4 215.2 112.9C209.2 117.5 166.7 101.9 158 109.1C149.3 116.2 174.4 146.1 167.7 148.5C161 150.9 122.5 125.8 103.4 116.8C84.4 107.7 84.9 114.8 84.6 122.6C84.4 130.5 83.6 139.2 86.4 164.7C89.3 190.2 95.9 232.4 85.8 226.3C75.7 220.1 48.8 165.5 35.7 144.7C22.5 123.8 23 136.8 19.3 158.8C15.6 180.9 7.8 211.9 0 243L0 0Z" fill="#00000022"></path><path d="M121.5 0C117.4 4.3 113.3 8.5 113.7 13.8C114.1 19.1 119 25.3 114.1 28.1C109.2 30.9 94.6 30.2 94.9 36C95.2 41.8 110.6 54.2 107.6 56.5C104.6 58.7 83.4 51 79 54.5C74.6 58.1 87.2 73.1 83.8 74.3C80.5 75.5 61.2 62.9 51.7 58.4C42.2 53.9 42.4 57.4 42.3 61.3C42.2 65.2 41.8 69.6 43.2 82.3C44.7 95.1 48 116.2 42.9 113.1C37.8 110.1 24.4 82.7 17.8 72.3C11.2 61.9 11.5 68.4 9.6 79.4C7.8 90.4 3.9 106 0 121.5L0 0Z" fill="#00000022"></path></g></svg>