<!-- github.com/rashidshamloo -->
<svg id="visual" viewBox="0 0 960 540" width="960" height="540" xmlns="http://www.w3.org/2000/svg" xmlns:xlink="http://www.w3.org/1999/xlink" version="1.1" preserveAspectRatio="none" ><rect x="0" y="0" width="960" height="540" fill="transparent"></rect><defs><linearGradient id="grad1_0" x1="43.8%" y1="100%" x2="100%" y2="0%"><stop offset="14.444444444444446%" stop-color="#000000" stop-opacity="1"></stop><stop offset="85.55555555555554%" stop-color="#000000" stop-opacity="1"></stop></linearGradient></defs><defs><linearGradient id="grad1_1" x1="43.8%" y1="100%" x2="100%" y2="0%"><stop offset="14.444444444444446%" stop-color="#000000" stop-opacity="1"></stop><stop offset="85.55555555555554%" stop-color="#777777" stop-opacity="1"></stop></linearGradient></defs><defs><linearGradient id="grad1_2" x1="43.8%" y1="100%" x2="100%" y2="0%"><stop offset="14.444444444444446%" stop-color="#ffffff" stop-opacity="1"></stop><stop offset="85.55555555555554%" stop-color="#777777" stop-opacity="1"></stop></linearGradient></defs><defs><linearGradient id="grad2_0" x1="0%" y1="100%" x2="56.3%" y2="0%"><stop offset="14.444444444444446%" stop-color="#000000" stop-opacity="1"></stop><stop offset="85.55555555555554%" stop-color="#000000" stop-opacity="1"></stop></linearGradient></defs><defs><linearGradient id="grad2_1" x1="0%" y1="100%" x2="56.3%" y2="0%"><stop offset="14.444444444444446%" stop-color="#777777" stop-opacity="1"></stop><stop offset="85.55555555555554%" stop-color="#000000" stop-opacity="1"></stop></linearGradient></defs><defs><linearGradient id="grad2_2" x1="0%" y1="100%" x2="56.3%" y2="0%"><stop offset="14.444444444444446%" stop-color="#777777" stop-opacity="1"></stop><stop offset="85.55555555555554%" stop-color="transparent" stop-opacity="1"></stop></linearGradient></defs><g transform="translate(960, 540)"><path d="M-351 0C-343.5 -35.6 -336.1 -71.2 -326.2 -106C-316.3 -140.8 -304.1 -174.9 -284 -206.3C-263.9 -237.7 -235.9 -266.4 -202.8 -279.1C-169.7 -291.8 -131.4 -288.4 -96.7 -297.7C-62.1 -307 -31 -329 0 -351L0 0Z" fill="#00000011"></path><path d="M-234 0C-229 -23.7 -224.1 -47.4 -217.5 -70.7C-210.9 -93.9 -202.7 -116.6 -189.3 -137.5C-175.9 -158.5 -157.3 -177.6 -135.2 -186.1C-113.1 -194.5 -87.6 -192.3 -64.5 -198.5C-41.4 -204.7 -20.7 -219.3 0 -234L0 0Z" fill="#00000033"></path><path d="M-117 0C-114.5 -11.9 -112 -23.7 -108.7 -35.3C-105.4 -46.9 -101.4 -58.3 -94.7 -68.8C-88 -79.2 -78.6 -88.8 -67.6 -93C-56.6 -97.3 -43.8 -96.1 -32.2 -99.2C-20.7 -102.3 -10.3 -109.7 0 -117L0 0Z" fill="#00000033"></path></g><g transform="translate(0, 0)"><path d="M351 0C329.3 31.5 307.6 63 296.7 96.4C285.8 129.8 285.7 165 273.4 198.7C261.2 232.3 236.8 264.4 206.3 284C175.8 303.5 139.2 310.5 103.8 319.6C68.4 328.6 34.2 339.8 0 351L0 0Z" fill="#00000011"></path><path d="M234 0C219.5 21 205.1 42 197.8 64.3C190.6 86.5 190.5 110 182.3 132.4C174.1 154.9 157.9 176.3 137.5 189.3C117.2 202.3 92.8 207 69.2 213C45.6 219.1 22.8 226.5 0 234L0 0Z" fill="#00000033"></path><path d="M117 0C109.8 10.5 102.5 21 98.9 32.1C95.3 43.3 95.2 55 91.1 66.2C87.1 77.4 78.9 88.1 68.8 94.7C58.6 101.2 46.4 103.5 34.6 106.5C22.8 109.5 11.4 113.3 0 117L0 0Z" fill="#00000033"></path></g></svg>