<!-- github.com/rashidshamloo -->
<svg id="visual" viewBox="0 0 960 540" width="960" height="540" xmlns="http://www.w3.org/2000/svg" xmlns:xlink="http://www.w3.org/1999/xlink" version="1.1" preserveAspectRatio="none"><rect x="0" y="0" width="960" height="540" fill="transparent"></rect><defs><linearGradient id="grad1_0" x1="43.8%" y1="100%" x2="100%" y2="0%"><stop offset="14.444444444444446%" stop-color="#000000" stop-opacity="1"></stop><stop offset="85.55555555555554%" stop-color="#000000" stop-opacity="1"></stop></linearGradient></defs><defs><linearGradient id="grad1_1" x1="43.8%" y1="100%" x2="100%" y2="0%"><stop offset="14.444444444444446%" stop-color="#000000" stop-opacity="1"></stop><stop offset="85.55555555555554%" stop-color="#ffffff" stop-opacity="1"></stop></linearGradient></defs><defs><linearGradient id="grad2_0" x1="0%" y1="100%" x2="56.3%" y2="0%"><stop offset="14.444444444444446%" stop-color="#000000" stop-opacity="1"></stop><stop offset="85.55555555555554%" stop-color="#000000" stop-opacity="1"></stop></linearGradient></defs><defs><linearGradient id="grad2_1" x1="0%" y1="100%" x2="56.3%" y2="0%"><stop offset="14.444444444444446%" stop-color="#ffffff" stop-opacity="1"></stop><stop offset="85.55555555555554%" stop-color="#000000" stop-opacity="1"></stop></linearGradient></defs><g transform="translate(960, 540)"><path d="M-216 0C-209.2 -36.9 -202.5 -73.9 -185.3 -107C-168.2 -140.1 -140.6 -169.5 -108 -187.1C-75.4 -204.6 -37.7 -210.3 0 -216L0 0Z" fill="#00000011"></path><path d="M-108 0C-104.6 -18.5 -101.2 -36.9 -92.7 -53.5C-84.1 -70.1 -70.3 -84.8 -54 -93.5C-37.7 -102.3 -18.8 -105.1 0 -108L0 0Z" fill="#00000033"></path></g><g transform="translate(0, 0)"><path d="M216 0C209.7 37.2 203.4 74.4 186.2 107.5C169 140.6 140.9 169.7 108 187.1C75.1 204.5 37.6 210.2 0 216L0 0Z" fill="#00000011"></path><path d="M108 0C104.9 18.6 101.7 37.2 93.1 53.7C84.5 70.3 70.4 84.8 54 93.5C37.6 102.2 18.8 105.1 0 108L0 0Z" fill="#00000033"></path></g></svg>